<?xml version="1.0" encoding="utf-8"?>
<!-- Generator: Adobe Illustrator 17.1.0, SVG Export Plug-In . SVG Version: 6.00 Build 0)  -->
<!DOCTYPE svg PUBLIC "-//W3C//DTD SVG 1.1//EN" "http://www.w3.org/Graphics/SVG/1.1/DTD/svg11.dtd">
<svg version="1.1" id="Layer_1" xmlns="http://www.w3.org/2000/svg" xmlns:xlink="http://www.w3.org/1999/xlink" x="0px" y="0px"
	 viewBox="0 0 676.5 676.4" enable-background="new 0 0 676.5 676.4" xml:space="preserve">
<g>
	<path fill-rule="evenodd" clip-rule="evenodd" fill="#6CBE45" d="M627.2,366.7l49.3-28.4l-49.3-28.5l42.8-37.5l-53.9-18.3
		l34.6-45.1l-56.4-7.4l25.2-51l-56.8,3.7l14.7-55l-55,14.7l3.7-56.8l-51,25.2l-7.4-56.4l-45.2,34.6L404.2,6.5l-37.5,42.8L338.2,0
		l-28.5,49.3L272.2,6.5l-18.3,53.9l-45.1-34.6l-7.4,56.4l-51-25.2l3.7,56.8l-55-14.7l14.7,55L57,150.3l25.2,51l-56.4,7.4l34.6,45.2
		L6.5,272.2l42.8,37.5L0,338.2l49.3,28.4L6.5,404.2l53.9,18.3l-34.6,45.1l56.4,7.4l-25.2,51l56.8-3.7l-14.7,55l55-14.7l-3.7,56.8
		l51-25.2l7.4,56.4l45.2-34.6l18.3,53.9l37.5-42.8l28.5,49.3l28.5-49.3l37.5,42.8l18.3-53.9l45.1,34.6l7.4-56.4l51,25.2l-3.7-56.8
		l55,14.7l-14.7-55l56.8,3.7l-25.2-51l56.4-7.4l-34.6-45.2l53.9-18.3L627.2,366.7z M319.5,555.7c-33.8,8-63.5-3.4-71.4-39.7
		l40.4-9.6c1.3,6.6,4.5,11.6,8.9,14.4c4.4,2.9,10.2,3.7,16.8,2.1c12.6-3,17.2-13,15.2-21.5c-3.9-16.7-20.3-12.2-30.6-9.7l-6-25.4
		c10.3-1.6,25.3-7.3,22-20.9c-2.2-9.5-11.5-11-20-9c-10.1,2.4-16.3,9.3-15.1,19.9l-38.8,9.2c-6.5-33.7,17.2-54.4,47.5-61.6
		c34.4-8.2,59.6,2.6,65.5,27.4c3.1,13.2,0.3,24.1-10.1,32.7c14.4,2,24.6,11.1,28,25.4C379.8,523.3,358.5,546.4,319.5,555.7z
		 M459.1,522.6c-47,11.1-71.5-20.5-81.4-62.1c-12.5-53.4,12.5-80.5,45.7-88.4c37.7-8.9,68.8,10,80.2,58.3
		C513.5,471.8,506.1,511.4,459.1,522.6z M491.5,269.1c3.7,15.4,5.2,30.7,4.9,45.8L428.3,331c-7.1-13.3-12.6-27.7-16.2-43.1
		l-88.3,20.9l-88.3,20.9c3.6,15.4,5.2,30.7,4.9,45.8l-68.1,16.2c-7.1-13.3-12.6-27.7-16.2-43.1c-22.5-94.7,34.4-189.3,127.1-211.2
		c57.9-13.7,116.1,4.2,157.1,42.7l28.6-6.8c36.8-8.7,71.7,5.7,78,32.1C553.1,231.8,528.3,260.3,491.5,269.1z"/>
	<path fill="#6CBE45" d="M430.7,404.3c-19.4,4.6-12.7,34.6-9.4,48.4c6,25.3,14,41.5,30.3,37.7c15.2-3.6,15.6-23.3,9.8-47.6
		C457.7,427.5,451.9,399.3,430.7,404.3z"/>
</g>
</svg>
